<svg width="300" height="150" viewBox="0 0 300 150" xmlns="http://www.w3.org/2000/svg">
  <defs>
    <style>
      .logo-animation {
        animation: logoFloat 3s ease-in-out infinite;
      }
      .sparkle-animation {
        animation: sparkle 2s ease-in-out infinite;
      }
      .text-glow {
        filter: drop-shadow(0 0 8px rgba(255,255,255,0.3));
      }
      @keyframes logoFloat {
        0%, 100% { transform: translateY(0px); }
        50% { transform: translateY(-3px); }
      }
      @keyframes sparkle {
        0%, 100% { opacity: 0.7; transform: scale(1); }
        50% { opacity: 1; transform: scale(1.1); }
      }
    </style>
  </defs>
  
  <!-- Top decorative elements (4 curved shapes) -->
  <g class="logo-animation" transform="translate(150, 20)">
    <!-- Shape 1 -->
    <path d="M -60 -5 Q -70 -15 -60 -25 Q -50 -35 -40 -25 Q -30 -15 -40 -5 Q -50 5 -60 -5" 
          fill="white" stroke="none" opacity="0.9"/>
    
    <!-- Shape 2 -->
    <path d="M -20 -5 Q -30 -15 -20 -25 Q -10 -35 0 -25 Q 10 -15 0 -5 Q -10 5 -20 -5" 
          fill="white" stroke="none" opacity="0.9"/>
    
    <!-- Shape 3 -->
    <path d="M 20 -5 Q 10 -15 20 -25 Q 30 -35 40 -25 Q 50 -15 40 -5 Q 30 5 20 -5" 
          fill="white" stroke="none" opacity="0.9"/>
    
    <!-- Shape 4 with sparkle -->
    <path d="M 60 -5 Q 50 -15 60 -25 Q 70 -35 80 -25 Q 90 -15 80 -5 Q 70 5 60 -5" 
          fill="white" stroke="none" opacity="0.9"/>
    
    <!-- Sparkle effect -->
    <g class="sparkle-animation" transform="translate(75, -20)">
      <circle cx="0" cy="0" r="2" fill="white" opacity="0.8"/>
      <path d="M -8 -2 L 8 -2 M -8 2 L 8 2 M -2 -8 L -2 8 M 2 -8 L 2 8" 
            stroke="white" stroke-width="1.5" stroke-linecap="round" opacity="0.6"/>
    </g>
  </g>
  
  <!-- Arabic text: مبين -->
  <g class="text-glow logo-animation" transform="translate(150, 70)">
    <!-- م -->
    <path d="M -50 0 Q -55 -8 -50 -15 Q -45 -22 -40 -15 Q -35 -8 -40 0 Q -45 8 -50 0" 
          fill="white" stroke="none" stroke-width="1.5"/>
    <circle cx="-47" cy="-5" r="1.5" fill="white"/>
    
    <!-- ب -->
    <path d="M -25 0 Q -30 -8 -25 -15 Q -20 -22 -15 -15 Q -10 -8 -15 0 Q -20 8 -25 0" 
          fill="white" stroke="none" stroke-width="1.5"/>
    <circle cx="-22" cy="-5" r="1.5" fill="white"/>
    <circle cx="-22" cy="5" r="1.5" fill="white"/>
    
    <!-- ي -->
    <path d="M 0 0 Q -5 -8 0 -15 Q 5 -22 10 -15 Q 15 -8 10 0 Q 5 8 0 0" 
          fill="white" stroke="none" stroke-width="1.5"/>
    <circle cx="2" cy="-5" r="1.5" fill="white"/>
    <circle cx="5" cy="-12" r="2" fill="white"/>
    
    <!-- ن -->
    <path d="M 25 0 Q 20 -8 25 -15 Q 30 -22 35 -15 Q 40 -8 35 0 Q 30 8 25 0" 
          fill="white" stroke="none" stroke-width="1.5"/>
    <circle cx="27" cy="-5" r="1.5" fill="white"/>
    <circle cx="30" cy="-12" r="2" fill="white"/>
  </g>
  
  <!-- Latin text: mubeen -->
  <g class="text-glow logo-animation" transform="translate(150, 110)">
    <!-- m -->
    <path d="M -40 0 Q -43 -3 -46 0 Q -49 3 -46 6 L -46 15 Q -49 18 -46 21 Q -43 24 -40 21 L -40 9 Q -37 6 -34 9 Q -31 12 -34 15 L -34 21 Q -31 24 -28 21 L -28 9 Q -25 6 -22 9 Q -19 12 -22 15 L -22 21 Q -19 24 -16 21" 
          fill="white" stroke="none" stroke-width="1.2"/>
    
    <!-- u -->
    <path d="M -10 0 Q -13 -3 -16 0 Q -19 3 -16 6 L -16 15 Q -19 18 -16 21 Q -13 24 -10 21 L -10 9 Q -7 6 -4 9 Q -1 12 -4 15 L -4 21 Q -1 24 2 21" 
          fill="white" stroke="none" stroke-width="1.2"/>
    
    <!-- b -->
    <path d="M 10 0 Q 7 -3 4 0 Q 1 3 4 6 L 4 15 Q 1 18 4 21 Q 7 24 10 21 L 10 9 Q 13 6 16 9 Q 19 12 16 15 L 16 21 Q 13 24 10 21" 
          fill="white" stroke="none" stroke-width="1.2"/>
    
    <!-- e -->
    <path d="M 30 0 Q 27 -3 24 0 Q 21 3 24 6 L 24 15 Q 21 18 24 21 Q 27 24 30 21 L 30 9 Q 33 6 36 9 Q 39 12 36 15 L 36 21 Q 33 24 30 21" 
          fill="white" stroke="none" stroke-width="1.2"/>
    
    <!-- e -->
    <path d="M 50 0 Q 47 -3 44 0 Q 41 3 44 6 L 44 15 Q 41 18 44 21 Q 47 24 50 21 L 50 9 Q 53 6 56 9 Q 59 12 56 15 L 56 21 Q 53 24 50 21" 
          fill="white" stroke="none" stroke-width="1.2"/>
    
    <!-- n -->
    <path d="M 70 0 Q 67 -3 64 0 Q 61 3 64 6 L 64 15 Q 61 18 64 21 Q 67 24 70 21 L 70 9 Q 73 6 76 9 Q 79 12 76 15 L 76 21 Q 73 24 70 21" 
          fill="white" stroke="none" stroke-width="1.2"/>
  </g>
</svg>
